<?xml version="1.0" encoding="utf-8"?>
<!-- Generator: Adobe Illustrator 24.0.1, SVG Export Plug-In . SVG Version: 6.00 Build 0)  -->
<svg version="1.1" id="Layer_1" xmlns="http://www.w3.org/2000/svg" xmlns:xlink="http://www.w3.org/1999/xlink" x="0px" y="0px"
	 viewBox="0 0 192 192" style="enable-background:new 0 0 192 192;" xml:space="preserve">
<style type="text/css">
	.st0{fill:#00FF00;}
	.st1{fill:#D3FF94;stroke:#000000;stroke-miterlimit:10;}
	.st2{fill:#D7FF00;stroke:#000000;stroke-miterlimit:10;}
	.st3{fill:#FF0000;}
	.st4{fill:none;stroke:#000000;stroke-miterlimit:10;}
</style>
<rect x="11" y="11" class="st0" width="169" height="169"/>
<path class="st1" d="M38.3,96.4c0.2-2.7,0.5-5.5,0.7-8.2C47,77.5,54.9,66.7,62.9,56c8.2-0.2,16.4-0.4,24.6-0.5
	c6,9.9,11.9,19.9,17.9,29.8c9.5-5.4,19.1-10.8,28.6-16.1c2.5,1.5,4.9,3.1,7.4,4.6c-1.8,12.8-3.7,25.7-5.5,38.5
	c-6.9,4.1-13.8,8.2-20.8,12.3c-13.5,0.2-27,0.4-40.6,0.5c-8.1,2.7-16.2,5.5-24.3,8.2C46.3,121,42.3,108.7,38.3,96.4z"/>
<path class="st2" d="M85.7,58.6c4.2-7,8.4-14,12.6-21c9.8-2.2,19.6-4.4,29.3-6.6c1.9,13.7,3.8,27.3,5.7,41c-9.5,6-18.9,12-28.4,18
	c-6.4-10.4-12.8-20.9-19.2-31.3C85.8,58.7,85.7,58.7,85.7,58.6z"/>
<path class="st3" d="M119,0"/>
<path class="st2" d="M128.3,31.4c8.9,3.1,17.9,6.3,26.8,9.4c2.5,4.2,5.1,8.5,7.6,12.7c-0.2,8.7-0.4,17.4-0.6,26.1
	c-3.2,1.8-6.4,3.6-9.5,5.3c-4.3-3.4-8.5-6.8-12.8-10.2c-2.5-2.4-5.1-4.7-7.6-7.1C131,55.6,129.7,43.5,128.3,31.4z"/>
<path class="st2" d="M162.3,79.5c0.1,8.8,0.2,17.6,0.4,26.4c0,4.8,0.1,9.7,0.1,14.5c-3.2-2.5-6.4-4.9-9.7-7.4
	c-0.3-9.6-0.6-19.2-0.9-28.8C155.6,82.6,159,81,162.3,79.5z"/>
<path class="st2" d="M153.2,112.3c6.9,5.4,13.9,10.8,20.8,16.2c0,1.6,0,3.2,0,4.8c-3.1-0.3-6.3-0.5-9.4-0.8
	c-4.1-1.5-8.2-2.9-12.3-4.4C152.6,122.9,152.9,117.6,153.2,112.3z"/>
<path class="st1" d="M114.1,123.1c7.2-4,14.5-7.9,21.7-11.9c-1.6,16.6-3.1,33.2-4.7,49.7c-5.7,0-11.5,0-17.2,0
	C114.1,148.4,114.1,135.8,114.1,123.1z"/>
<path class="st1" d="M76,124.8c-1.6,11.5-3.3,22.9-4.9,34.4c-5.7,0.3-11.4,0.5-17.1,0.8c-1.3-9.1-2.5-18.1-3.8-27.2
	c7.8-2.4,15.7-4.8,23.5-7.2C74.5,125.3,75.3,125.1,76,124.8z"/>
<path class="st1" d="M38.8,96.7c0.7,2.6,1.4,5.1,2.1,7.7c-0.9,2.9-1.9,5.7-2.8,8.6c-5.3,2.8-10.6,5.6-15.9,8.3
	c-1.3-0.4-2.7-0.8-4-1.1c1.2-0.7,2.4-1.4,3.7-2.1c3.2-2.5,6.3-5.1,9.5-7.6C33.8,105.9,36.3,101.3,38.8,96.7z"/>
<g>
	<g>
		<path class="st4" d="M91.5,111.5"/>
	</g>
</g>
</svg>
